M48
;DRILL file {KiCad 4.0.4-stable} date 07/08/18 17:05:16
;FORMAT={3:3/ absolute / metric / suppress leading zeros}
FMAT,2
METRIC,TZ
T1C0.400
T2C0.762
T3C1.000
T4C2.499
%
G90
G05
M71
T1
X119685Y-127102
X119888Y-110338
X120650Y-112420
X122022Y-114859
X122276Y-128829
X123139Y-97942
X124866Y-112370
X125324Y-116738
X127305Y-89662
X129489Y-91694
X129540Y-95980
X129896Y-109830
X130048Y-83414
X132639Y-125628
X132791Y-118110
X135382Y-109779
X137700Y-127000
X141122Y-115621
X141783Y-113030
X141783Y-126848
X145085Y-109830
T2
X118110Y-85090
X118110Y-87630
X118110Y-90170
X118110Y-92710
X118110Y-95250
X118110Y-97790
X118110Y-100330
X118110Y-102870
X118110Y-105410
X118110Y-107950
X118110Y-110490
X118110Y-113030
X118110Y-115570
X118110Y-118110
X118110Y-120650
X126492Y-80010
X129032Y-80010
X131572Y-80010
X134112Y-80010
X143510Y-85090
X143510Y-87630
X143510Y-90170
X143510Y-92710
X143510Y-95250
X143510Y-97790
X143510Y-100330
X143510Y-102870
X143510Y-105410
X143510Y-107950
X143510Y-110490
X143510Y-113030
X143510Y-115570
X143510Y-118110
X143510Y-120650
T3
X114300Y-105410
X114300Y-107950
X114300Y-110490
X114300Y-113030
X147320Y-105410
X147320Y-107950
X147320Y-110490
X147320Y-113030
X147320Y-115570
X147320Y-118110
X147320Y-120650
T4
X139700Y-77470
T0
M30
