G04 #@! TF.FileFunction,Legend,Bot*
%FSLAX46Y46*%
G04 Gerber Fmt 4.6, Leading zero omitted, Abs format (unit mm)*
G04 Created by KiCad (PCBNEW 4.0.4-stable) date 07/08/18 17:05:10*
%MOMM*%
%LPD*%
G01*
G04 APERTURE LIST*
%ADD10C,0.100000*%
%ADD11C,0.120000*%
%ADD12C,0.150000*%
G04 APERTURE END LIST*
D10*
D11*
X130560000Y-92980000D02*
X130560000Y-94980000D01*
X128520000Y-94980000D02*
X128520000Y-92980000D01*
X128020000Y-92980000D02*
X128020000Y-94980000D01*
X125980000Y-94980000D02*
X125980000Y-92980000D01*
X124190000Y-115770000D02*
X122190000Y-115770000D01*
X122190000Y-117910000D02*
X124190000Y-117910000D01*
X138700000Y-128070000D02*
X140700000Y-128070000D01*
X140700000Y-125930000D02*
X138700000Y-125930000D01*
X131810000Y-117040000D02*
X129810000Y-117040000D01*
X129810000Y-119180000D02*
X131810000Y-119180000D01*
X120920000Y-128070000D02*
X122920000Y-128070000D01*
X122920000Y-125930000D02*
X120920000Y-125930000D01*
X131810000Y-124660000D02*
X129810000Y-124660000D01*
X129810000Y-126800000D02*
X131810000Y-126800000D01*
D12*
X116205000Y-80645000D02*
X116205000Y-80010000D01*
X116205000Y-80010000D02*
X145415000Y-80010000D01*
X145415000Y-80010000D02*
X145415000Y-80645000D01*
X145415000Y-125095000D02*
X145415000Y-80645000D01*
X116205000Y-132715000D02*
X116205000Y-80645000D01*
X145415000Y-125095000D02*
X145415000Y-132715000D01*
X145415000Y-132715000D02*
X116205000Y-132715000D01*
X135890000Y-123190000D02*
X125730000Y-123190000D01*
X125730000Y-123190000D02*
X125730000Y-128270000D01*
X125730000Y-128270000D02*
X135890000Y-128270000D01*
X135890000Y-128270000D02*
X135890000Y-123190000D01*
X131647143Y-93813334D02*
X131694762Y-93765715D01*
X131742381Y-93622858D01*
X131742381Y-93527620D01*
X131694762Y-93384762D01*
X131599524Y-93289524D01*
X131504286Y-93241905D01*
X131313810Y-93194286D01*
X131170952Y-93194286D01*
X130980476Y-93241905D01*
X130885238Y-93289524D01*
X130790000Y-93384762D01*
X130742381Y-93527620D01*
X130742381Y-93622858D01*
X130790000Y-93765715D01*
X130837619Y-93813334D01*
X131742381Y-94765715D02*
X131742381Y-94194286D01*
X131742381Y-94480000D02*
X130742381Y-94480000D01*
X130885238Y-94384762D01*
X130980476Y-94289524D01*
X131028095Y-94194286D01*
X129107143Y-93813334D02*
X129154762Y-93765715D01*
X129202381Y-93622858D01*
X129202381Y-93527620D01*
X129154762Y-93384762D01*
X129059524Y-93289524D01*
X128964286Y-93241905D01*
X128773810Y-93194286D01*
X128630952Y-93194286D01*
X128440476Y-93241905D01*
X128345238Y-93289524D01*
X128250000Y-93384762D01*
X128202381Y-93527620D01*
X128202381Y-93622858D01*
X128250000Y-93765715D01*
X128297619Y-93813334D01*
X128297619Y-94194286D02*
X128250000Y-94241905D01*
X128202381Y-94337143D01*
X128202381Y-94575239D01*
X128250000Y-94670477D01*
X128297619Y-94718096D01*
X128392857Y-94765715D01*
X128488095Y-94765715D01*
X128630952Y-94718096D01*
X129202381Y-94146667D01*
X129202381Y-94765715D01*
X123356666Y-119142381D02*
X123690000Y-118666190D01*
X123928095Y-119142381D02*
X123928095Y-118142381D01*
X123547142Y-118142381D01*
X123451904Y-118190000D01*
X123404285Y-118237619D01*
X123356666Y-118332857D01*
X123356666Y-118475714D01*
X123404285Y-118570952D01*
X123451904Y-118618571D01*
X123547142Y-118666190D01*
X123928095Y-118666190D01*
X122404285Y-119142381D02*
X122975714Y-119142381D01*
X122690000Y-119142381D02*
X122690000Y-118142381D01*
X122785238Y-118285238D01*
X122880476Y-118380476D01*
X122975714Y-118428095D01*
X139866666Y-125602381D02*
X140200000Y-125126190D01*
X140438095Y-125602381D02*
X140438095Y-124602381D01*
X140057142Y-124602381D01*
X139961904Y-124650000D01*
X139914285Y-124697619D01*
X139866666Y-124792857D01*
X139866666Y-124935714D01*
X139914285Y-125030952D01*
X139961904Y-125078571D01*
X140057142Y-125126190D01*
X140438095Y-125126190D01*
X139485714Y-124697619D02*
X139438095Y-124650000D01*
X139342857Y-124602381D01*
X139104761Y-124602381D01*
X139009523Y-124650000D01*
X138961904Y-124697619D01*
X138914285Y-124792857D01*
X138914285Y-124888095D01*
X138961904Y-125030952D01*
X139533333Y-125602381D01*
X138914285Y-125602381D01*
X130976666Y-120412381D02*
X131310000Y-119936190D01*
X131548095Y-120412381D02*
X131548095Y-119412381D01*
X131167142Y-119412381D01*
X131071904Y-119460000D01*
X131024285Y-119507619D01*
X130976666Y-119602857D01*
X130976666Y-119745714D01*
X131024285Y-119840952D01*
X131071904Y-119888571D01*
X131167142Y-119936190D01*
X131548095Y-119936190D01*
X130643333Y-119412381D02*
X130024285Y-119412381D01*
X130357619Y-119793333D01*
X130214761Y-119793333D01*
X130119523Y-119840952D01*
X130071904Y-119888571D01*
X130024285Y-119983810D01*
X130024285Y-120221905D01*
X130071904Y-120317143D01*
X130119523Y-120364762D01*
X130214761Y-120412381D01*
X130500476Y-120412381D01*
X130595714Y-120364762D01*
X130643333Y-120317143D01*
X122086666Y-125602381D02*
X122420000Y-125126190D01*
X122658095Y-125602381D02*
X122658095Y-124602381D01*
X122277142Y-124602381D01*
X122181904Y-124650000D01*
X122134285Y-124697619D01*
X122086666Y-124792857D01*
X122086666Y-124935714D01*
X122134285Y-125030952D01*
X122181904Y-125078571D01*
X122277142Y-125126190D01*
X122658095Y-125126190D01*
X121229523Y-124935714D02*
X121229523Y-125602381D01*
X121467619Y-124554762D02*
X121705714Y-125269048D01*
X121086666Y-125269048D01*
X130976666Y-128032381D02*
X131310000Y-127556190D01*
X131548095Y-128032381D02*
X131548095Y-127032381D01*
X131167142Y-127032381D01*
X131071904Y-127080000D01*
X131024285Y-127127619D01*
X130976666Y-127222857D01*
X130976666Y-127365714D01*
X131024285Y-127460952D01*
X131071904Y-127508571D01*
X131167142Y-127556190D01*
X131548095Y-127556190D01*
X130071904Y-127032381D02*
X130548095Y-127032381D01*
X130595714Y-127508571D01*
X130548095Y-127460952D01*
X130452857Y-127413333D01*
X130214761Y-127413333D01*
X130119523Y-127460952D01*
X130071904Y-127508571D01*
X130024285Y-127603810D01*
X130024285Y-127841905D01*
X130071904Y-127937143D01*
X130119523Y-127984762D01*
X130214761Y-128032381D01*
X130452857Y-128032381D01*
X130548095Y-127984762D01*
X130595714Y-127937143D01*
X130301905Y-131532381D02*
X130301905Y-132341905D01*
X130254286Y-132437143D01*
X130206667Y-132484762D01*
X130111429Y-132532381D01*
X129920952Y-132532381D01*
X129825714Y-132484762D01*
X129778095Y-132437143D01*
X129730476Y-132341905D01*
X129730476Y-131532381D01*
X128730476Y-132532381D02*
X129301905Y-132532381D01*
X129016191Y-132532381D02*
X129016191Y-131532381D01*
X129111429Y-131675238D01*
X129206667Y-131770476D01*
X129301905Y-131818095D01*
X134714762Y-119308571D02*
X134381428Y-119308571D01*
X134238571Y-119832381D02*
X134714762Y-119832381D01*
X134714762Y-118832381D01*
X134238571Y-118832381D01*
X133857619Y-119784762D02*
X133714762Y-119832381D01*
X133476666Y-119832381D01*
X133381428Y-119784762D01*
X133333809Y-119737143D01*
X133286190Y-119641905D01*
X133286190Y-119546667D01*
X133333809Y-119451429D01*
X133381428Y-119403810D01*
X133476666Y-119356190D01*
X133667143Y-119308571D01*
X133762381Y-119260952D01*
X133810000Y-119213333D01*
X133857619Y-119118095D01*
X133857619Y-119022857D01*
X133810000Y-118927619D01*
X133762381Y-118880000D01*
X133667143Y-118832381D01*
X133429047Y-118832381D01*
X133286190Y-118880000D01*
X132857619Y-119832381D02*
X132857619Y-118832381D01*
X132476666Y-118832381D01*
X132381428Y-118880000D01*
X132333809Y-118927619D01*
X132286190Y-119022857D01*
X132286190Y-119165714D01*
X132333809Y-119260952D01*
X132381428Y-119308571D01*
X132476666Y-119356190D01*
X132857619Y-119356190D01*
X131952857Y-118832381D02*
X131333809Y-118832381D01*
X131667143Y-119213333D01*
X131524285Y-119213333D01*
X131429047Y-119260952D01*
X131381428Y-119308571D01*
X131333809Y-119403810D01*
X131333809Y-119641905D01*
X131381428Y-119737143D01*
X131429047Y-119784762D01*
X131524285Y-119832381D01*
X131810000Y-119832381D01*
X131905238Y-119784762D01*
X131952857Y-119737143D01*
X130952857Y-118927619D02*
X130905238Y-118880000D01*
X130810000Y-118832381D01*
X130571904Y-118832381D01*
X130476666Y-118880000D01*
X130429047Y-118927619D01*
X130381428Y-119022857D01*
X130381428Y-119118095D01*
X130429047Y-119260952D01*
X131000476Y-119832381D01*
X130381428Y-119832381D01*
X129190952Y-119832381D02*
X129190952Y-118832381D01*
X128952857Y-118832381D01*
X128809999Y-118880000D01*
X128714761Y-118975238D01*
X128667142Y-119070476D01*
X128619523Y-119260952D01*
X128619523Y-119403810D01*
X128667142Y-119594286D01*
X128714761Y-119689524D01*
X128809999Y-119784762D01*
X128952857Y-119832381D01*
X129190952Y-119832381D01*
X128190952Y-119308571D02*
X127857618Y-119308571D01*
X127714761Y-119832381D02*
X128190952Y-119832381D01*
X128190952Y-118832381D01*
X127714761Y-118832381D01*
X127429047Y-118832381D02*
X127095714Y-119832381D01*
X126762380Y-118832381D01*
M02*
