G04 #@! TF.FileFunction,Soldermask,Top*
%FSLAX46Y46*%
G04 Gerber Fmt 4.6, Leading zero omitted, Abs format (unit mm)*
G04 Created by KiCad (PCBNEW 4.0.4-stable) date 07/08/18 17:05:10*
%MOMM*%
%LPD*%
G01*
G04 APERTURE LIST*
%ADD10C,0.100000*%
%ADD11C,1.924000*%
%ADD12R,2.100000X2.100000*%
%ADD13O,2.100000X2.100000*%
%ADD14C,6.399480*%
%ADD15R,2.100000X1.300000*%
%ADD16R,1.600000X3.400000*%
G04 APERTURE END LIST*
D10*
D11*
X126492000Y-80010000D03*
X129032000Y-80010000D03*
X131572000Y-80010000D03*
X134112000Y-80010000D03*
D12*
X147320000Y-105410000D03*
D13*
X147320000Y-107950000D03*
X147320000Y-110490000D03*
X147320000Y-113030000D03*
X147320000Y-115570000D03*
X147320000Y-118110000D03*
X147320000Y-120650000D03*
D14*
X139700000Y-77470000D03*
D12*
X114300000Y-105410000D03*
D13*
X114300000Y-107950000D03*
X114300000Y-110490000D03*
X114300000Y-113030000D03*
D15*
X130810000Y-116000000D03*
X130810000Y-112600000D03*
X130810000Y-120220000D03*
X130810000Y-123620000D03*
X130810000Y-127840000D03*
X130810000Y-131240000D03*
X138430000Y-123620000D03*
X138430000Y-120220000D03*
X123190000Y-120220000D03*
X123190000Y-123620000D03*
D11*
X143510000Y-85090000D03*
X143510000Y-87630000D03*
X143510000Y-90170000D03*
X143510000Y-92710000D03*
X143510000Y-95250000D03*
X143510000Y-97790000D03*
X143510000Y-100330000D03*
X143510000Y-102870000D03*
X143510000Y-105410000D03*
X143510000Y-107950000D03*
X143510000Y-110490000D03*
X143510000Y-113030000D03*
X143510000Y-115570000D03*
X143510000Y-118110000D03*
X143510000Y-120650000D03*
X118110000Y-85090000D03*
X118110000Y-87630000D03*
X118110000Y-90170000D03*
X118110000Y-92710000D03*
X118110000Y-95250000D03*
X118110000Y-97790000D03*
X118110000Y-100330000D03*
X118110000Y-102870000D03*
X118110000Y-105410000D03*
X118110000Y-107950000D03*
X118110000Y-110490000D03*
X118110000Y-113030000D03*
X118110000Y-115570000D03*
X118110000Y-118110000D03*
X118110000Y-120650000D03*
D16*
X123190000Y-106810000D03*
X125190000Y-106810000D03*
X127190000Y-106810000D03*
X129190000Y-106810000D03*
X131190000Y-106810000D03*
X133190000Y-106810000D03*
X135190000Y-106810000D03*
X137190000Y-106810000D03*
X137190000Y-87110000D03*
X135190000Y-87110000D03*
X133190000Y-87110000D03*
X131190000Y-87110000D03*
X129190000Y-87110000D03*
X127190000Y-87110000D03*
X125190000Y-87110000D03*
X123190000Y-87110000D03*
M02*
