G04 #@! TF.FileFunction,Soldermask,Bot*
%FSLAX46Y46*%
G04 Gerber Fmt 4.6, Leading zero omitted, Abs format (unit mm)*
G04 Created by KiCad (PCBNEW 4.0.4-stable) date 07/08/18 17:05:10*
%MOMM*%
%LPD*%
G01*
G04 APERTURE LIST*
%ADD10C,0.100000*%
%ADD11R,2.000000X2.400000*%
%ADD12C,1.924000*%
%ADD13R,2.100000X2.100000*%
%ADD14O,2.100000X2.100000*%
%ADD15C,6.399480*%
%ADD16R,2.400000X2.100000*%
G04 APERTURE END LIST*
D10*
D11*
X129540000Y-95980000D03*
X129540000Y-91980000D03*
X127000000Y-95980000D03*
X127000000Y-91980000D03*
D12*
X126492000Y-80010000D03*
X129032000Y-80010000D03*
X131572000Y-80010000D03*
X134112000Y-80010000D03*
D13*
X147320000Y-105410000D03*
D14*
X147320000Y-107950000D03*
X147320000Y-110490000D03*
X147320000Y-113030000D03*
X147320000Y-115570000D03*
X147320000Y-118110000D03*
X147320000Y-120650000D03*
D15*
X139700000Y-77470000D03*
D13*
X114300000Y-105410000D03*
D14*
X114300000Y-107950000D03*
X114300000Y-110490000D03*
X114300000Y-113030000D03*
D16*
X121190000Y-116840000D03*
X125190000Y-116840000D03*
X141700000Y-127000000D03*
X137700000Y-127000000D03*
X128810000Y-118110000D03*
X132810000Y-118110000D03*
X123920000Y-127000000D03*
X119920000Y-127000000D03*
X128810000Y-125730000D03*
X132810000Y-125730000D03*
D12*
X143510000Y-85090000D03*
X143510000Y-87630000D03*
X143510000Y-90170000D03*
X143510000Y-92710000D03*
X143510000Y-95250000D03*
X143510000Y-97790000D03*
X143510000Y-100330000D03*
X143510000Y-102870000D03*
X143510000Y-105410000D03*
X143510000Y-107950000D03*
X143510000Y-110490000D03*
X143510000Y-113030000D03*
X143510000Y-115570000D03*
X143510000Y-118110000D03*
X143510000Y-120650000D03*
X118110000Y-85090000D03*
X118110000Y-87630000D03*
X118110000Y-90170000D03*
X118110000Y-92710000D03*
X118110000Y-95250000D03*
X118110000Y-97790000D03*
X118110000Y-100330000D03*
X118110000Y-102870000D03*
X118110000Y-105410000D03*
X118110000Y-107950000D03*
X118110000Y-110490000D03*
X118110000Y-113030000D03*
X118110000Y-115570000D03*
X118110000Y-118110000D03*
X118110000Y-120650000D03*
M02*
