G04 #@! TF.FileFunction,Copper,L2,Bot,Signal*
%FSLAX46Y46*%
G04 Gerber Fmt 4.6, Leading zero omitted, Abs format (unit mm)*
G04 Created by KiCad (PCBNEW 4.0.4-stable) date 07/08/18 17:05:10*
%MOMM*%
%LPD*%
G01*
G04 APERTURE LIST*
%ADD10C,0.100000*%
%ADD11R,1.600000X2.000000*%
%ADD12C,1.524000*%
%ADD13R,1.700000X1.700000*%
%ADD14O,1.700000X1.700000*%
%ADD15C,5.999480*%
%ADD16R,2.000000X1.700000*%
%ADD17C,0.600000*%
%ADD18C,0.250000*%
G04 APERTURE END LIST*
D10*
D11*
X129540000Y-95980000D03*
X129540000Y-91980000D03*
X127000000Y-95980000D03*
X127000000Y-91980000D03*
D12*
X126492000Y-80010000D03*
X129032000Y-80010000D03*
X131572000Y-80010000D03*
X134112000Y-80010000D03*
D13*
X147320000Y-105410000D03*
D14*
X147320000Y-107950000D03*
X147320000Y-110490000D03*
X147320000Y-113030000D03*
X147320000Y-115570000D03*
X147320000Y-118110000D03*
X147320000Y-120650000D03*
D15*
X139700000Y-77470000D03*
D13*
X114300000Y-105410000D03*
D14*
X114300000Y-107950000D03*
X114300000Y-110490000D03*
X114300000Y-113030000D03*
D16*
X121190000Y-116840000D03*
X125190000Y-116840000D03*
X141700000Y-127000000D03*
X137700000Y-127000000D03*
X128810000Y-118110000D03*
X132810000Y-118110000D03*
X123920000Y-127000000D03*
X119920000Y-127000000D03*
X128810000Y-125730000D03*
X132810000Y-125730000D03*
D12*
X143510000Y-85090000D03*
X143510000Y-87630000D03*
X143510000Y-90170000D03*
X143510000Y-92710000D03*
X143510000Y-95250000D03*
X143510000Y-97790000D03*
X143510000Y-100330000D03*
X143510000Y-102870000D03*
X143510000Y-105410000D03*
X143510000Y-107950000D03*
X143510000Y-110490000D03*
X143510000Y-113030000D03*
X143510000Y-115570000D03*
X143510000Y-118110000D03*
X143510000Y-120650000D03*
X118110000Y-85090000D03*
X118110000Y-87630000D03*
X118110000Y-90170000D03*
X118110000Y-92710000D03*
X118110000Y-95250000D03*
X118110000Y-97790000D03*
X118110000Y-100330000D03*
X118110000Y-102870000D03*
X118110000Y-105410000D03*
X118110000Y-107950000D03*
X118110000Y-110490000D03*
X118110000Y-113030000D03*
X118110000Y-115570000D03*
X118110000Y-118110000D03*
X118110000Y-120650000D03*
D17*
X135382000Y-109778800D03*
X129895600Y-109829600D03*
X130048000Y-83413600D03*
X129540000Y-95980000D03*
X129489200Y-91694000D03*
X145084800Y-109829600D03*
X141782800Y-113030000D03*
X141122400Y-115620800D03*
X120650000Y-112420400D03*
X124866400Y-112369600D03*
X122021600Y-114858800D03*
X141782800Y-126847600D03*
X125323600Y-116738400D03*
X122275600Y-128828800D03*
X137700000Y-127000000D03*
X132791200Y-118110000D03*
X119684800Y-127101600D03*
X132638800Y-125628400D03*
X127304800Y-89662000D03*
X123139200Y-97942400D03*
X119888000Y-110337600D03*
D18*
X129946400Y-109778800D02*
X135382000Y-109778800D01*
X129895600Y-109829600D02*
X129946400Y-109778800D01*
X126492000Y-81686400D02*
X126492000Y-80010000D01*
X127457200Y-82651600D02*
X126492000Y-81686400D01*
X129286000Y-82651600D02*
X127457200Y-82651600D01*
X130048000Y-83413600D02*
X129286000Y-82651600D01*
X127000000Y-95980000D02*
X129540000Y-95980000D01*
X121190000Y-116840000D02*
X121190000Y-113353600D01*
X124663200Y-94316800D02*
X127000000Y-91980000D01*
X124663200Y-98145600D02*
X124663200Y-94316800D01*
X127000000Y-100482400D02*
X124663200Y-98145600D01*
X127000000Y-110083600D02*
X127000000Y-100482400D01*
X126898400Y-110185200D02*
X127000000Y-110083600D01*
X124358400Y-110185200D02*
X126898400Y-110185200D01*
X121190000Y-113353600D02*
X124358400Y-110185200D01*
X129540000Y-91980000D02*
X127000000Y-91980000D01*
X129489200Y-91694000D02*
X129540000Y-91744800D01*
X129540000Y-91744800D02*
X129540000Y-91980000D01*
X114300000Y-110490000D02*
X114300000Y-110540800D01*
X114300000Y-110540800D02*
X112776000Y-112064800D01*
X112776000Y-112064800D02*
X112776000Y-116636800D01*
X112776000Y-116636800D02*
X116789200Y-120650000D01*
X116789200Y-120650000D02*
X118110000Y-120650000D01*
X121190000Y-116840000D02*
X121190000Y-120160800D01*
X120599200Y-120751600D02*
X118211600Y-120751600D01*
X121190000Y-120160800D02*
X120599200Y-120751600D01*
X118211600Y-120751600D02*
X118110000Y-120650000D01*
X145592800Y-107137200D02*
X147320000Y-105410000D01*
X145592800Y-109321600D02*
X145592800Y-107137200D01*
X145084800Y-109829600D02*
X145592800Y-109321600D01*
X141782800Y-114960400D02*
X141782800Y-113030000D01*
X141122400Y-115620800D02*
X141782800Y-114960400D01*
X118110000Y-110490000D02*
X118719600Y-110490000D01*
X118719600Y-110490000D02*
X120650000Y-112420400D01*
X124866400Y-112369600D02*
X126288800Y-110947200D01*
X126288800Y-110947200D02*
X140157200Y-110947200D01*
X140157200Y-110947200D02*
X140919200Y-111709200D01*
X140919200Y-111709200D02*
X144576800Y-111709200D01*
X144576800Y-111709200D02*
X145389600Y-112522000D01*
X145389600Y-112522000D02*
X145389600Y-116179600D01*
X145389600Y-116179600D02*
X147320000Y-118110000D01*
X147320000Y-120650000D02*
X145542000Y-118872000D01*
X122072400Y-114909600D02*
X122021600Y-114858800D01*
X138226800Y-114909600D02*
X122072400Y-114909600D01*
X140157200Y-116840000D02*
X138226800Y-114909600D01*
X144576800Y-116840000D02*
X140157200Y-116840000D01*
X145542000Y-117805200D02*
X144576800Y-116840000D01*
X145542000Y-118872000D02*
X145542000Y-117805200D01*
X141782800Y-126847600D02*
X141700000Y-126930400D01*
X141700000Y-126930400D02*
X141700000Y-127000000D01*
X125323600Y-116738400D02*
X125222000Y-116840000D01*
X125222000Y-116840000D02*
X125190000Y-116840000D01*
X128810000Y-118110000D02*
X128810000Y-120668800D01*
X121767600Y-128320800D02*
X122275600Y-128828800D01*
X121767600Y-126339600D02*
X121767600Y-128320800D01*
X122783600Y-125323600D02*
X121767600Y-126339600D01*
X124155200Y-125323600D02*
X122783600Y-125323600D01*
X128810000Y-120668800D02*
X124155200Y-125323600D01*
X132810000Y-118110000D02*
X131876800Y-118110000D01*
X131876800Y-118110000D02*
X129387600Y-120599200D01*
X126206000Y-124714000D02*
X123920000Y-127000000D01*
X126288800Y-124714000D02*
X126206000Y-124714000D01*
X129387600Y-121615200D02*
X126288800Y-124714000D01*
X129387600Y-120599200D02*
X129387600Y-121615200D01*
X132791200Y-118110000D02*
X132810000Y-118110000D01*
X119920000Y-127000000D02*
X119920000Y-128860800D01*
X128810000Y-127069600D02*
X128810000Y-125730000D01*
X126238000Y-129641600D02*
X128810000Y-127069600D01*
X120700800Y-129641600D02*
X126238000Y-129641600D01*
X119920000Y-128860800D02*
X120700800Y-129641600D01*
X119684800Y-127101600D02*
X119786400Y-127000000D01*
X119786400Y-127000000D02*
X119920000Y-127000000D01*
X132638800Y-125628400D02*
X132740400Y-125730000D01*
X132740400Y-125730000D02*
X132810000Y-125730000D01*
X139700000Y-102362000D02*
X143002000Y-102362000D01*
X138226800Y-100888800D02*
X139700000Y-102362000D01*
X138226800Y-96520000D02*
X138226800Y-100888800D01*
X132232400Y-90525600D02*
X138226800Y-96520000D01*
X128168400Y-90525600D02*
X132232400Y-90525600D01*
X127304800Y-89662000D02*
X128168400Y-90525600D01*
X143002000Y-102362000D02*
X143510000Y-102870000D01*
X119024400Y-99415600D02*
X118110000Y-100330000D01*
X121666000Y-99415600D02*
X119024400Y-99415600D01*
X123139200Y-97942400D02*
X121666000Y-99415600D01*
X119684800Y-104495600D02*
X118110000Y-102920800D01*
X119684800Y-110134400D02*
X119684800Y-104495600D01*
X119888000Y-110337600D02*
X119684800Y-110134400D01*
X118110000Y-102920800D02*
X118110000Y-102870000D01*
M02*
