G04 #@! TF.FileFunction,Legend,Top*
%FSLAX46Y46*%
G04 Gerber Fmt 4.6, Leading zero omitted, Abs format (unit mm)*
G04 Created by KiCad (PCBNEW 4.0.4-stable) date 07/08/18 17:05:10*
%MOMM*%
%LPD*%
G01*
G04 APERTURE LIST*
%ADD10C,0.100000*%
%ADD11C,0.250000*%
%ADD12C,0.150000*%
%ADD13C,0.120000*%
%ADD14C,0.160000*%
G04 APERTURE END LIST*
D10*
X148882933Y-109640000D02*
X149582933Y-109640000D01*
X149582933Y-109806666D01*
X149549600Y-109906666D01*
X149482933Y-109973333D01*
X149416267Y-110006666D01*
X149282933Y-110040000D01*
X149182933Y-110040000D01*
X149049600Y-110006666D01*
X148982933Y-109973333D01*
X148916267Y-109906666D01*
X148882933Y-109806666D01*
X148882933Y-109640000D01*
X149516267Y-110306666D02*
X149549600Y-110340000D01*
X149582933Y-110406666D01*
X149582933Y-110573333D01*
X149549600Y-110640000D01*
X149516267Y-110673333D01*
X149449600Y-110706666D01*
X149382933Y-110706666D01*
X149282933Y-110673333D01*
X148882933Y-110273333D01*
X148882933Y-110706666D01*
X149582933Y-110940000D02*
X149582933Y-111406667D01*
X148882933Y-111106667D01*
X148832133Y-107049200D02*
X149532133Y-107049200D01*
X149532133Y-107215866D01*
X149498800Y-107315866D01*
X149432133Y-107382533D01*
X149365467Y-107415866D01*
X149232133Y-107449200D01*
X149132133Y-107449200D01*
X148998800Y-107415866D01*
X148932133Y-107382533D01*
X148865467Y-107315866D01*
X148832133Y-107215866D01*
X148832133Y-107049200D01*
X149465467Y-107715866D02*
X149498800Y-107749200D01*
X149532133Y-107815866D01*
X149532133Y-107982533D01*
X149498800Y-108049200D01*
X149465467Y-108082533D01*
X149398800Y-108115866D01*
X149332133Y-108115866D01*
X149232133Y-108082533D01*
X148832133Y-107682533D01*
X148832133Y-108115866D01*
X149532133Y-108715867D02*
X149532133Y-108582533D01*
X149498800Y-108515867D01*
X149465467Y-108482533D01*
X149365467Y-108415867D01*
X149232133Y-108382533D01*
X148965467Y-108382533D01*
X148898800Y-108415867D01*
X148865467Y-108449200D01*
X148832133Y-108515867D01*
X148832133Y-108649200D01*
X148865467Y-108715867D01*
X148898800Y-108749200D01*
X148965467Y-108782533D01*
X149132133Y-108782533D01*
X149198800Y-108749200D01*
X149232133Y-108715867D01*
X149265467Y-108649200D01*
X149265467Y-108515867D01*
X149232133Y-108449200D01*
X149198800Y-108415867D01*
X149132133Y-108382533D01*
X148882933Y-112281600D02*
X149582933Y-112281600D01*
X149582933Y-112448266D01*
X149549600Y-112548266D01*
X149482933Y-112614933D01*
X149416267Y-112648266D01*
X149282933Y-112681600D01*
X149182933Y-112681600D01*
X149049600Y-112648266D01*
X148982933Y-112614933D01*
X148916267Y-112548266D01*
X148882933Y-112448266D01*
X148882933Y-112281600D01*
X148882933Y-113348266D02*
X148882933Y-112948266D01*
X148882933Y-113148266D02*
X149582933Y-113148266D01*
X149482933Y-113081600D01*
X149416267Y-113014933D01*
X149382933Y-112948266D01*
X149516267Y-113614933D02*
X149549600Y-113648267D01*
X149582933Y-113714933D01*
X149582933Y-113881600D01*
X149549600Y-113948267D01*
X149516267Y-113981600D01*
X149449600Y-114014933D01*
X149382933Y-114014933D01*
X149282933Y-113981600D01*
X148882933Y-113581600D01*
X148882933Y-114014933D01*
X148832133Y-114720000D02*
X149532133Y-114720000D01*
X149532133Y-114886666D01*
X149498800Y-114986666D01*
X149432133Y-115053333D01*
X149365467Y-115086666D01*
X149232133Y-115120000D01*
X149132133Y-115120000D01*
X148998800Y-115086666D01*
X148932133Y-115053333D01*
X148865467Y-114986666D01*
X148832133Y-114886666D01*
X148832133Y-114720000D01*
X148832133Y-115786666D02*
X148832133Y-115386666D01*
X148832133Y-115586666D02*
X149532133Y-115586666D01*
X149432133Y-115520000D01*
X149365467Y-115453333D01*
X149332133Y-115386666D01*
X149532133Y-116020000D02*
X149532133Y-116453333D01*
X149265467Y-116220000D01*
X149265467Y-116320000D01*
X149232133Y-116386667D01*
X149198800Y-116420000D01*
X149132133Y-116453333D01*
X148965467Y-116453333D01*
X148898800Y-116420000D01*
X148865467Y-116386667D01*
X148832133Y-116320000D01*
X148832133Y-116120000D01*
X148865467Y-116053333D01*
X148898800Y-116020000D01*
X148832133Y-117440934D02*
X149532133Y-117440934D01*
X149532133Y-117607600D01*
X149498800Y-117707600D01*
X149432133Y-117774267D01*
X149365467Y-117807600D01*
X149232133Y-117840934D01*
X149132133Y-117840934D01*
X148998800Y-117807600D01*
X148932133Y-117774267D01*
X148865467Y-117707600D01*
X148832133Y-117607600D01*
X148832133Y-117440934D01*
X149298800Y-118440934D02*
X148832133Y-118440934D01*
X149565467Y-118274267D02*
X149065467Y-118107600D01*
X149065467Y-118540934D01*
X148832133Y-120234934D02*
X149532133Y-120234934D01*
X149532133Y-120401600D01*
X149498800Y-120501600D01*
X149432133Y-120568267D01*
X149365467Y-120601600D01*
X149232133Y-120634934D01*
X149132133Y-120634934D01*
X148998800Y-120601600D01*
X148932133Y-120568267D01*
X148865467Y-120501600D01*
X148832133Y-120401600D01*
X148832133Y-120234934D01*
X149465467Y-120901600D02*
X149498800Y-120934934D01*
X149532133Y-121001600D01*
X149532133Y-121168267D01*
X149498800Y-121234934D01*
X149465467Y-121268267D01*
X149398800Y-121301600D01*
X149332133Y-121301600D01*
X149232133Y-121268267D01*
X148832133Y-120868267D01*
X148832133Y-121301600D01*
X148781333Y-104407600D02*
X149481333Y-104407600D01*
X149481333Y-104574266D01*
X149448000Y-104674266D01*
X149381333Y-104740933D01*
X149314667Y-104774266D01*
X149181333Y-104807600D01*
X149081333Y-104807600D01*
X148948000Y-104774266D01*
X148881333Y-104740933D01*
X148814667Y-104674266D01*
X148781333Y-104574266D01*
X148781333Y-104407600D01*
X148781333Y-105474266D02*
X148781333Y-105074266D01*
X148781333Y-105274266D02*
X149481333Y-105274266D01*
X149381333Y-105207600D01*
X149314667Y-105140933D01*
X149281333Y-105074266D01*
X149481333Y-106107600D02*
X149481333Y-105774267D01*
X149148000Y-105740933D01*
X149181333Y-105774267D01*
X149214667Y-105840933D01*
X149214667Y-106007600D01*
X149181333Y-106074267D01*
X149148000Y-106107600D01*
X149081333Y-106140933D01*
X148914667Y-106140933D01*
X148848000Y-106107600D01*
X148814667Y-106074267D01*
X148781333Y-106007600D01*
X148781333Y-105840933D01*
X148814667Y-105774267D01*
X148848000Y-105740933D01*
X112838667Y-108247600D02*
X112505333Y-108480934D01*
X112838667Y-108647600D02*
X112138667Y-108647600D01*
X112138667Y-108380934D01*
X112172000Y-108314267D01*
X112205333Y-108280934D01*
X112272000Y-108247600D01*
X112372000Y-108247600D01*
X112438667Y-108280934D01*
X112472000Y-108314267D01*
X112505333Y-108380934D01*
X112505333Y-108647600D01*
X112138667Y-108014267D02*
X112838667Y-107547600D01*
X112138667Y-107547600D02*
X112838667Y-108014267D01*
X112205333Y-107314267D02*
X112172000Y-107280933D01*
X112138667Y-107214267D01*
X112138667Y-107047600D01*
X112172000Y-106980933D01*
X112205333Y-106947600D01*
X112272000Y-106914267D01*
X112338667Y-106914267D01*
X112438667Y-106947600D01*
X112838667Y-107347600D01*
X112838667Y-106914267D01*
X112087867Y-106225866D02*
X112087867Y-105825866D01*
X112787867Y-106025866D02*
X112087867Y-106025866D01*
X112087867Y-105659200D02*
X112787867Y-105192533D01*
X112087867Y-105192533D02*
X112787867Y-105659200D01*
X112154533Y-104959200D02*
X112121200Y-104925866D01*
X112087867Y-104859200D01*
X112087867Y-104692533D01*
X112121200Y-104625866D01*
X112154533Y-104592533D01*
X112221200Y-104559200D01*
X112287867Y-104559200D01*
X112387867Y-104592533D01*
X112787867Y-104992533D01*
X112787867Y-104559200D01*
X112087867Y-111375733D02*
X112087867Y-110942400D01*
X112354533Y-111175733D01*
X112354533Y-111075733D01*
X112387867Y-111009066D01*
X112421200Y-110975733D01*
X112487867Y-110942400D01*
X112654533Y-110942400D01*
X112721200Y-110975733D01*
X112754533Y-111009066D01*
X112787867Y-111075733D01*
X112787867Y-111275733D01*
X112754533Y-111342400D01*
X112721200Y-111375733D01*
X112721200Y-110642399D02*
X112754533Y-110609066D01*
X112787867Y-110642399D01*
X112754533Y-110675733D01*
X112721200Y-110642399D01*
X112787867Y-110642399D01*
X112087867Y-110375733D02*
X112087867Y-109942400D01*
X112354533Y-110175733D01*
X112354533Y-110075733D01*
X112387867Y-110009066D01*
X112421200Y-109975733D01*
X112487867Y-109942400D01*
X112654533Y-109942400D01*
X112721200Y-109975733D01*
X112754533Y-110009066D01*
X112787867Y-110075733D01*
X112787867Y-110275733D01*
X112754533Y-110342400D01*
X112721200Y-110375733D01*
X112121200Y-113918933D02*
X112087867Y-113985599D01*
X112087867Y-114085599D01*
X112121200Y-114185599D01*
X112187867Y-114252266D01*
X112254533Y-114285599D01*
X112387867Y-114318933D01*
X112487867Y-114318933D01*
X112621200Y-114285599D01*
X112687867Y-114252266D01*
X112754533Y-114185599D01*
X112787867Y-114085599D01*
X112787867Y-114018933D01*
X112754533Y-113918933D01*
X112721200Y-113885599D01*
X112487867Y-113885599D01*
X112487867Y-114018933D01*
X112787867Y-113585599D02*
X112087867Y-113585599D01*
X112787867Y-113185599D01*
X112087867Y-113185599D01*
X112787867Y-112852266D02*
X112087867Y-112852266D01*
X112087867Y-112685600D01*
X112121200Y-112585600D01*
X112187867Y-112518933D01*
X112254533Y-112485600D01*
X112387867Y-112452266D01*
X112487867Y-112452266D01*
X112621200Y-112485600D01*
X112687867Y-112518933D01*
X112754533Y-112585600D01*
X112787867Y-112685600D01*
X112787867Y-112852266D01*
D11*
X147299371Y-99176458D02*
X147299371Y-98843124D01*
X147823181Y-98700267D02*
X147823181Y-99176458D01*
X146823181Y-99176458D01*
X146823181Y-98700267D01*
X147775562Y-98319315D02*
X147823181Y-98176458D01*
X147823181Y-97938362D01*
X147775562Y-97843124D01*
X147727943Y-97795505D01*
X147632705Y-97747886D01*
X147537467Y-97747886D01*
X147442229Y-97795505D01*
X147394610Y-97843124D01*
X147346990Y-97938362D01*
X147299371Y-98128839D01*
X147251752Y-98224077D01*
X147204133Y-98271696D01*
X147108895Y-98319315D01*
X147013657Y-98319315D01*
X146918419Y-98271696D01*
X146870800Y-98224077D01*
X146823181Y-98128839D01*
X146823181Y-97890743D01*
X146870800Y-97747886D01*
X147823181Y-97319315D02*
X146823181Y-97319315D01*
X146823181Y-96938362D01*
X146870800Y-96843124D01*
X146918419Y-96795505D01*
X147013657Y-96747886D01*
X147156514Y-96747886D01*
X147251752Y-96795505D01*
X147299371Y-96843124D01*
X147346990Y-96938362D01*
X147346990Y-97319315D01*
X146823181Y-96414553D02*
X146823181Y-95795505D01*
X147204133Y-96128839D01*
X147204133Y-95985981D01*
X147251752Y-95890743D01*
X147299371Y-95843124D01*
X147394610Y-95795505D01*
X147632705Y-95795505D01*
X147727943Y-95843124D01*
X147775562Y-95890743D01*
X147823181Y-95985981D01*
X147823181Y-96271696D01*
X147775562Y-96366934D01*
X147727943Y-96414553D01*
X146918419Y-95414553D02*
X146870800Y-95366934D01*
X146823181Y-95271696D01*
X146823181Y-95033600D01*
X146870800Y-94938362D01*
X146918419Y-94890743D01*
X147013657Y-94843124D01*
X147108895Y-94843124D01*
X147251752Y-94890743D01*
X147823181Y-95462172D01*
X147823181Y-94843124D01*
X147823181Y-94414553D02*
X146823181Y-94414553D01*
X146823181Y-94176458D01*
X146870800Y-94033600D01*
X146966038Y-93938362D01*
X147061276Y-93890743D01*
X147251752Y-93843124D01*
X147394610Y-93843124D01*
X147585086Y-93890743D01*
X147680324Y-93938362D01*
X147775562Y-94033600D01*
X147823181Y-94176458D01*
X147823181Y-94414553D01*
X147299371Y-93414553D02*
X147299371Y-93081219D01*
X147823181Y-92938362D02*
X147823181Y-93414553D01*
X146823181Y-93414553D01*
X146823181Y-92938362D01*
X146823181Y-92652648D02*
X147823181Y-92319315D01*
X146823181Y-91985981D01*
X147823181Y-90414552D02*
X147823181Y-90890743D01*
X146823181Y-90890743D01*
X146823181Y-89890743D02*
X146823181Y-89700266D01*
X146870800Y-89605028D01*
X146966038Y-89509790D01*
X147156514Y-89462171D01*
X147489848Y-89462171D01*
X147680324Y-89509790D01*
X147775562Y-89605028D01*
X147823181Y-89700266D01*
X147823181Y-89890743D01*
X147775562Y-89985981D01*
X147680324Y-90081219D01*
X147489848Y-90128838D01*
X147156514Y-90128838D01*
X146966038Y-90081219D01*
X146870800Y-89985981D01*
X146823181Y-89890743D01*
X147823181Y-88462171D02*
X147346990Y-88795505D01*
X147823181Y-89033600D02*
X146823181Y-89033600D01*
X146823181Y-88652647D01*
X146870800Y-88557409D01*
X146918419Y-88509790D01*
X147013657Y-88462171D01*
X147156514Y-88462171D01*
X147251752Y-88509790D01*
X147299371Y-88557409D01*
X147346990Y-88652647D01*
X147346990Y-89033600D01*
X147537467Y-88081219D02*
X147537467Y-87605028D01*
X147823181Y-88176457D02*
X146823181Y-87843124D01*
X147823181Y-87509790D01*
X147823181Y-86414552D02*
X146823181Y-86414552D01*
X147823181Y-85843123D01*
X146823181Y-85843123D01*
X146823181Y-85176457D02*
X146823181Y-84985980D01*
X146870800Y-84890742D01*
X146966038Y-84795504D01*
X147156514Y-84747885D01*
X147489848Y-84747885D01*
X147680324Y-84795504D01*
X147775562Y-84890742D01*
X147823181Y-84985980D01*
X147823181Y-85176457D01*
X147775562Y-85271695D01*
X147680324Y-85366933D01*
X147489848Y-85414552D01*
X147156514Y-85414552D01*
X146966038Y-85366933D01*
X146870800Y-85271695D01*
X146823181Y-85176457D01*
X147823181Y-84319314D02*
X146823181Y-84319314D01*
X146823181Y-84081219D01*
X146870800Y-83938361D01*
X146966038Y-83843123D01*
X147061276Y-83795504D01*
X147251752Y-83747885D01*
X147394610Y-83747885D01*
X147585086Y-83795504D01*
X147680324Y-83843123D01*
X147775562Y-83938361D01*
X147823181Y-84081219D01*
X147823181Y-84319314D01*
X147299371Y-83319314D02*
X147299371Y-82985980D01*
X147823181Y-82843123D02*
X147823181Y-83319314D01*
X146823181Y-83319314D01*
X146823181Y-82843123D01*
D12*
X138176000Y-105410000D02*
X143764000Y-105410000D01*
X116840000Y-105410000D02*
X121920000Y-105410000D01*
X121920000Y-105410000D02*
X121920000Y-104394000D01*
X121920000Y-104394000D02*
X138176000Y-104394000D01*
X138176000Y-104394000D02*
X138176000Y-105410000D01*
X117856000Y-85090000D02*
X142748000Y-85090000D01*
X142748000Y-85090000D02*
X142748000Y-95758000D01*
X142748000Y-95758000D02*
X117856000Y-95758000D01*
X117856000Y-95758000D02*
X117856000Y-85090000D01*
X116840000Y-83058000D02*
X143764000Y-83058000D01*
X143764000Y-83058000D02*
X143764000Y-101346000D01*
X143764000Y-101346000D02*
X116840000Y-101346000D01*
X116840000Y-101346000D02*
X116840000Y-83058000D01*
X143375923Y-103886000D02*
G75*
G03X143375923Y-103886000I-1135923J0D01*
G01*
X119499923Y-103886000D02*
G75*
G03X119499923Y-103886000I-1135923J0D01*
G01*
X119499923Y-80010000D02*
G75*
G03X119499923Y-80010000I-1135923J0D01*
G01*
X143375923Y-80010000D02*
G75*
G03X143375923Y-80010000I-1135923J0D01*
G01*
X116840000Y-105410000D02*
X116840000Y-78486000D01*
X116840000Y-78486000D02*
X143764000Y-78486000D01*
X143764000Y-78486000D02*
X143764000Y-105410000D01*
D13*
X145990000Y-106680000D02*
X145990000Y-121980000D01*
X145990000Y-121980000D02*
X148650000Y-121980000D01*
X148650000Y-121980000D02*
X148650000Y-106680000D01*
X148650000Y-106680000D02*
X145990000Y-106680000D01*
X145990000Y-105410000D02*
X145990000Y-104080000D01*
X145990000Y-104080000D02*
X147320000Y-104080000D01*
X112970000Y-106680000D02*
X112970000Y-114360000D01*
X112970000Y-114360000D02*
X115630000Y-114360000D01*
X115630000Y-114360000D02*
X115630000Y-106680000D01*
X115630000Y-106680000D02*
X112970000Y-106680000D01*
X112970000Y-105410000D02*
X112970000Y-104080000D01*
X112970000Y-104080000D02*
X114300000Y-104080000D01*
X131910000Y-115950000D02*
X132210000Y-115950000D01*
X132210000Y-115950000D02*
X132210000Y-112650000D01*
X132210000Y-112650000D02*
X131910000Y-112650000D01*
X129710000Y-115950000D02*
X129410000Y-115950000D01*
X129410000Y-115950000D02*
X129410000Y-112650000D01*
X129410000Y-112650000D02*
X129710000Y-112650000D01*
X129710000Y-120270000D02*
X129410000Y-120270000D01*
X129410000Y-120270000D02*
X129410000Y-123570000D01*
X129410000Y-123570000D02*
X129710000Y-123570000D01*
X131910000Y-120270000D02*
X132210000Y-120270000D01*
X132210000Y-120270000D02*
X132210000Y-123570000D01*
X132210000Y-123570000D02*
X131910000Y-123570000D01*
X129710000Y-127890000D02*
X129410000Y-127890000D01*
X129410000Y-127890000D02*
X129410000Y-131190000D01*
X129410000Y-131190000D02*
X129710000Y-131190000D01*
X131910000Y-127890000D02*
X132210000Y-127890000D01*
X132210000Y-127890000D02*
X132210000Y-131190000D01*
X132210000Y-131190000D02*
X131910000Y-131190000D01*
X139530000Y-123570000D02*
X139830000Y-123570000D01*
X139830000Y-123570000D02*
X139830000Y-120270000D01*
X139830000Y-120270000D02*
X139530000Y-120270000D01*
X137330000Y-123570000D02*
X137030000Y-123570000D01*
X137030000Y-123570000D02*
X137030000Y-120270000D01*
X137030000Y-120270000D02*
X137330000Y-120270000D01*
X122090000Y-120270000D02*
X121790000Y-120270000D01*
X121790000Y-120270000D02*
X121790000Y-123570000D01*
X121790000Y-123570000D02*
X122090000Y-123570000D01*
X124290000Y-120270000D02*
X124590000Y-120270000D01*
X124590000Y-120270000D02*
X124590000Y-123570000D01*
X124590000Y-123570000D02*
X124290000Y-123570000D01*
D12*
X138190000Y-108810000D02*
X122190000Y-108810000D01*
X138190000Y-85110000D02*
X138190000Y-108810000D01*
X122190000Y-85110000D02*
X138190000Y-85110000D01*
X122190000Y-108810000D02*
X122190000Y-85110000D01*
X130862534Y-103525581D02*
X130386343Y-103525581D01*
X130386343Y-102525581D01*
X131767296Y-103430343D02*
X131719677Y-103477962D01*
X131576820Y-103525581D01*
X131481582Y-103525581D01*
X131338724Y-103477962D01*
X131243486Y-103382724D01*
X131195867Y-103287486D01*
X131148248Y-103097010D01*
X131148248Y-102954152D01*
X131195867Y-102763676D01*
X131243486Y-102668438D01*
X131338724Y-102573200D01*
X131481582Y-102525581D01*
X131576820Y-102525581D01*
X131719677Y-102573200D01*
X131767296Y-102620819D01*
X132195867Y-103525581D02*
X132195867Y-102525581D01*
X132433962Y-102525581D01*
X132576820Y-102573200D01*
X132672058Y-102668438D01*
X132719677Y-102763676D01*
X132767296Y-102954152D01*
X132767296Y-103097010D01*
X132719677Y-103287486D01*
X132672058Y-103382724D01*
X132576820Y-103477962D01*
X132433962Y-103525581D01*
X132195867Y-103525581D01*
X133719677Y-103525581D02*
X133148248Y-103525581D01*
X133433962Y-103525581D02*
X133433962Y-102525581D01*
X133338724Y-102668438D01*
X133243486Y-102763676D01*
X133148248Y-102811295D01*
X133349524Y-82214762D02*
X133492381Y-82262381D01*
X133730477Y-82262381D01*
X133825715Y-82214762D01*
X133873334Y-82167143D01*
X133920953Y-82071905D01*
X133920953Y-81976667D01*
X133873334Y-81881429D01*
X133825715Y-81833810D01*
X133730477Y-81786190D01*
X133540000Y-81738571D01*
X133444762Y-81690952D01*
X133397143Y-81643333D01*
X133349524Y-81548095D01*
X133349524Y-81452857D01*
X133397143Y-81357619D01*
X133444762Y-81310000D01*
X133540000Y-81262381D01*
X133778096Y-81262381D01*
X133920953Y-81310000D01*
X134778096Y-82262381D02*
X134778096Y-81262381D01*
X134778096Y-82214762D02*
X134682858Y-82262381D01*
X134492381Y-82262381D01*
X134397143Y-82214762D01*
X134349524Y-82167143D01*
X134301905Y-82071905D01*
X134301905Y-81786190D01*
X134349524Y-81690952D01*
X134397143Y-81643333D01*
X134492381Y-81595714D01*
X134682858Y-81595714D01*
X134778096Y-81643333D01*
X135682858Y-82262381D02*
X135682858Y-81738571D01*
X135635239Y-81643333D01*
X135540001Y-81595714D01*
X135349524Y-81595714D01*
X135254286Y-81643333D01*
X135682858Y-82214762D02*
X135587620Y-82262381D01*
X135349524Y-82262381D01*
X135254286Y-82214762D01*
X135206667Y-82119524D01*
X135206667Y-82024286D01*
X135254286Y-81929048D01*
X135349524Y-81881429D01*
X135587620Y-81881429D01*
X135682858Y-81833810D01*
X130563809Y-82214762D02*
X130706666Y-82262381D01*
X130944762Y-82262381D01*
X131040000Y-82214762D01*
X131087619Y-82167143D01*
X131135238Y-82071905D01*
X131135238Y-81976667D01*
X131087619Y-81881429D01*
X131040000Y-81833810D01*
X130944762Y-81786190D01*
X130754285Y-81738571D01*
X130659047Y-81690952D01*
X130611428Y-81643333D01*
X130563809Y-81548095D01*
X130563809Y-81452857D01*
X130611428Y-81357619D01*
X130659047Y-81310000D01*
X130754285Y-81262381D01*
X130992381Y-81262381D01*
X131135238Y-81310000D01*
X131992381Y-82214762D02*
X131897143Y-82262381D01*
X131706666Y-82262381D01*
X131611428Y-82214762D01*
X131563809Y-82167143D01*
X131516190Y-82071905D01*
X131516190Y-81786190D01*
X131563809Y-81690952D01*
X131611428Y-81643333D01*
X131706666Y-81595714D01*
X131897143Y-81595714D01*
X131992381Y-81643333D01*
X132563809Y-82262381D02*
X132468571Y-82214762D01*
X132420952Y-82119524D01*
X132420952Y-81262381D01*
X127549524Y-81262381D02*
X127882857Y-82262381D01*
X128216191Y-81262381D01*
X128978096Y-82214762D02*
X128882858Y-82262381D01*
X128692381Y-82262381D01*
X128597143Y-82214762D01*
X128549524Y-82167143D01*
X128501905Y-82071905D01*
X128501905Y-81786190D01*
X128549524Y-81690952D01*
X128597143Y-81643333D01*
X128692381Y-81595714D01*
X128882858Y-81595714D01*
X128978096Y-81643333D01*
X129835239Y-82214762D02*
X129740001Y-82262381D01*
X129549524Y-82262381D01*
X129454286Y-82214762D01*
X129406667Y-82167143D01*
X129359048Y-82071905D01*
X129359048Y-81786190D01*
X129406667Y-81690952D01*
X129454286Y-81643333D01*
X129549524Y-81595714D01*
X129740001Y-81595714D01*
X129835239Y-81643333D01*
X124697143Y-81310000D02*
X124601905Y-81262381D01*
X124459048Y-81262381D01*
X124316190Y-81310000D01*
X124220952Y-81405238D01*
X124173333Y-81500476D01*
X124125714Y-81690952D01*
X124125714Y-81833810D01*
X124173333Y-82024286D01*
X124220952Y-82119524D01*
X124316190Y-82214762D01*
X124459048Y-82262381D01*
X124554286Y-82262381D01*
X124697143Y-82214762D01*
X124744762Y-82167143D01*
X124744762Y-81833810D01*
X124554286Y-81833810D01*
X125173333Y-81595714D02*
X125173333Y-82262381D01*
X125173333Y-81690952D02*
X125220952Y-81643333D01*
X125316190Y-81595714D01*
X125459048Y-81595714D01*
X125554286Y-81643333D01*
X125601905Y-81738571D01*
X125601905Y-82262381D01*
X126506667Y-82262381D02*
X126506667Y-81262381D01*
X126506667Y-82214762D02*
X126411429Y-82262381D01*
X126220952Y-82262381D01*
X126125714Y-82214762D01*
X126078095Y-82167143D01*
X126030476Y-82071905D01*
X126030476Y-81786190D01*
X126078095Y-81690952D01*
X126125714Y-81643333D01*
X126220952Y-81595714D01*
X126411429Y-81595714D01*
X126506667Y-81643333D01*
X150798305Y-103271581D02*
X150798305Y-102271581D01*
X151179258Y-102271581D01*
X151274496Y-102319200D01*
X151322115Y-102366819D01*
X151369734Y-102462057D01*
X151369734Y-102604914D01*
X151322115Y-102700152D01*
X151274496Y-102747771D01*
X151179258Y-102795390D01*
X150798305Y-102795390D01*
X152322115Y-103271581D02*
X151750686Y-103271581D01*
X152036400Y-103271581D02*
X152036400Y-102271581D01*
X151941162Y-102414438D01*
X151845924Y-102509676D01*
X151750686Y-102557295D01*
X138961905Y-72842381D02*
X138961905Y-71842381D01*
X139342858Y-71842381D01*
X139438096Y-71890000D01*
X139485715Y-71937619D01*
X139533334Y-72032857D01*
X139533334Y-72175714D01*
X139485715Y-72270952D01*
X139438096Y-72318571D01*
X139342858Y-72366190D01*
X138961905Y-72366190D01*
X139914286Y-71937619D02*
X139961905Y-71890000D01*
X140057143Y-71842381D01*
X140295239Y-71842381D01*
X140390477Y-71890000D01*
X140438096Y-71937619D01*
X140485715Y-72032857D01*
X140485715Y-72128095D01*
X140438096Y-72270952D01*
X139866667Y-72842381D01*
X140485715Y-72842381D01*
X108481905Y-102560381D02*
X108481905Y-101560381D01*
X108862858Y-101560381D01*
X108958096Y-101608000D01*
X109005715Y-101655619D01*
X109053334Y-101750857D01*
X109053334Y-101893714D01*
X109005715Y-101988952D01*
X108958096Y-102036571D01*
X108862858Y-102084190D01*
X108481905Y-102084190D01*
X109386667Y-101560381D02*
X110005715Y-101560381D01*
X109672381Y-101941333D01*
X109815239Y-101941333D01*
X109910477Y-101988952D01*
X109958096Y-102036571D01*
X110005715Y-102131810D01*
X110005715Y-102369905D01*
X109958096Y-102465143D01*
X109910477Y-102512762D01*
X109815239Y-102560381D01*
X109529524Y-102560381D01*
X109434286Y-102512762D01*
X109386667Y-102465143D01*
X107084762Y-125793333D02*
X107132381Y-125650476D01*
X107132381Y-125412380D01*
X107084762Y-125317142D01*
X107037143Y-125269523D01*
X106941905Y-125221904D01*
X106846667Y-125221904D01*
X106751429Y-125269523D01*
X106703810Y-125317142D01*
X106656190Y-125412380D01*
X106608571Y-125602857D01*
X106560952Y-125698095D01*
X106513333Y-125745714D01*
X106418095Y-125793333D01*
X106322857Y-125793333D01*
X106227619Y-125745714D01*
X106180000Y-125698095D01*
X106132381Y-125602857D01*
X106132381Y-125364761D01*
X106180000Y-125221904D01*
X106132381Y-124888571D02*
X107132381Y-124650476D01*
X106418095Y-124459999D01*
X107132381Y-124269523D01*
X106132381Y-124031428D01*
X107132381Y-123126666D02*
X107132381Y-123698095D01*
X107132381Y-123412381D02*
X106132381Y-123412381D01*
X106275238Y-123507619D01*
X106370476Y-123602857D01*
X106418095Y-123698095D01*
X129389286Y-110577381D02*
X129389286Y-111386905D01*
X129436905Y-111482143D01*
X129484524Y-111529762D01*
X129579762Y-111577381D01*
X129770239Y-111577381D01*
X129865477Y-111529762D01*
X129913096Y-111482143D01*
X129960715Y-111386905D01*
X129960715Y-110577381D01*
X130436905Y-111577381D02*
X130436905Y-110577381D01*
X130817858Y-110577381D01*
X130913096Y-110625000D01*
X130960715Y-110672619D01*
X131008334Y-110767857D01*
X131008334Y-110910714D01*
X130960715Y-111005952D01*
X130913096Y-111053571D01*
X130817858Y-111101190D01*
X130436905Y-111101190D01*
X108989762Y-125158333D02*
X109037381Y-125015476D01*
X109037381Y-124777380D01*
X108989762Y-124682142D01*
X108942143Y-124634523D01*
X108846905Y-124586904D01*
X108751667Y-124586904D01*
X108656429Y-124634523D01*
X108608810Y-124682142D01*
X108561190Y-124777380D01*
X108513571Y-124967857D01*
X108465952Y-125063095D01*
X108418333Y-125110714D01*
X108323095Y-125158333D01*
X108227857Y-125158333D01*
X108132619Y-125110714D01*
X108085000Y-125063095D01*
X108037381Y-124967857D01*
X108037381Y-124729761D01*
X108085000Y-124586904D01*
X108037381Y-124253571D02*
X109037381Y-124015476D01*
X108323095Y-123824999D01*
X109037381Y-123634523D01*
X108037381Y-123396428D01*
X108132619Y-123063095D02*
X108085000Y-123015476D01*
X108037381Y-122920238D01*
X108037381Y-122682142D01*
X108085000Y-122586904D01*
X108132619Y-122539285D01*
X108227857Y-122491666D01*
X108323095Y-122491666D01*
X108465952Y-122539285D01*
X109037381Y-123110714D01*
X109037381Y-122491666D01*
X127770000Y-122007381D02*
X127960477Y-122007381D01*
X128055715Y-122055000D01*
X128150953Y-122150238D01*
X128198572Y-122340714D01*
X128198572Y-122674048D01*
X128150953Y-122864524D01*
X128055715Y-122959762D01*
X127960477Y-123007381D01*
X127770000Y-123007381D01*
X127674762Y-122959762D01*
X127579524Y-122864524D01*
X127531905Y-122674048D01*
X127531905Y-122340714D01*
X127579524Y-122150238D01*
X127674762Y-122055000D01*
X127770000Y-122007381D01*
X128627143Y-123007381D02*
X128627143Y-122007381D01*
X128722381Y-122626429D02*
X129008096Y-123007381D01*
X129008096Y-122340714D02*
X128627143Y-122721667D01*
X108354762Y-129603333D02*
X108402381Y-129460476D01*
X108402381Y-129222380D01*
X108354762Y-129127142D01*
X108307143Y-129079523D01*
X108211905Y-129031904D01*
X108116667Y-129031904D01*
X108021429Y-129079523D01*
X107973810Y-129127142D01*
X107926190Y-129222380D01*
X107878571Y-129412857D01*
X107830952Y-129508095D01*
X107783333Y-129555714D01*
X107688095Y-129603333D01*
X107592857Y-129603333D01*
X107497619Y-129555714D01*
X107450000Y-129508095D01*
X107402381Y-129412857D01*
X107402381Y-129174761D01*
X107450000Y-129031904D01*
X107402381Y-128698571D02*
X108402381Y-128460476D01*
X107688095Y-128269999D01*
X108402381Y-128079523D01*
X107402381Y-127841428D01*
X107402381Y-127555714D02*
X107402381Y-126936666D01*
X107783333Y-127270000D01*
X107783333Y-127127142D01*
X107830952Y-127031904D01*
X107878571Y-126984285D01*
X107973810Y-126936666D01*
X108211905Y-126936666D01*
X108307143Y-126984285D01*
X108354762Y-127031904D01*
X108402381Y-127127142D01*
X108402381Y-127412857D01*
X108354762Y-127508095D01*
X108307143Y-127555714D01*
X126396905Y-131262381D02*
X126396905Y-130262381D01*
X126635000Y-130262381D01*
X126777858Y-130310000D01*
X126873096Y-130405238D01*
X126920715Y-130500476D01*
X126968334Y-130690952D01*
X126968334Y-130833810D01*
X126920715Y-131024286D01*
X126873096Y-131119524D01*
X126777858Y-131214762D01*
X126635000Y-131262381D01*
X126396905Y-131262381D01*
X127301667Y-130595714D02*
X127492143Y-131262381D01*
X127682620Y-130786190D01*
X127873096Y-131262381D01*
X128063572Y-130595714D01*
X128444524Y-130595714D02*
X128444524Y-131262381D01*
X128444524Y-130690952D02*
X128492143Y-130643333D01*
X128587381Y-130595714D01*
X128730239Y-130595714D01*
X128825477Y-130643333D01*
X128873096Y-130738571D01*
X128873096Y-131262381D01*
X110894762Y-127063333D02*
X110942381Y-126920476D01*
X110942381Y-126682380D01*
X110894762Y-126587142D01*
X110847143Y-126539523D01*
X110751905Y-126491904D01*
X110656667Y-126491904D01*
X110561429Y-126539523D01*
X110513810Y-126587142D01*
X110466190Y-126682380D01*
X110418571Y-126872857D01*
X110370952Y-126968095D01*
X110323333Y-127015714D01*
X110228095Y-127063333D01*
X110132857Y-127063333D01*
X110037619Y-127015714D01*
X109990000Y-126968095D01*
X109942381Y-126872857D01*
X109942381Y-126634761D01*
X109990000Y-126491904D01*
X109942381Y-126158571D02*
X110942381Y-125920476D01*
X110228095Y-125729999D01*
X110942381Y-125539523D01*
X109942381Y-125301428D01*
X110275714Y-124491904D02*
X110942381Y-124491904D01*
X109894762Y-124730000D02*
X110609048Y-124968095D01*
X110609048Y-124349047D01*
X140708095Y-124277381D02*
X140231904Y-124277381D01*
X140231904Y-123277381D01*
X140898571Y-123610714D02*
X141279523Y-123610714D01*
X141041428Y-124277381D02*
X141041428Y-123420238D01*
X141089047Y-123325000D01*
X141184285Y-123277381D01*
X141279523Y-123277381D01*
X141470000Y-123610714D02*
X141850952Y-123610714D01*
X141612857Y-123277381D02*
X141612857Y-124134524D01*
X141660476Y-124229762D01*
X141755714Y-124277381D01*
X141850952Y-124277381D01*
X110894762Y-123253333D02*
X110942381Y-123110476D01*
X110942381Y-122872380D01*
X110894762Y-122777142D01*
X110847143Y-122729523D01*
X110751905Y-122681904D01*
X110656667Y-122681904D01*
X110561429Y-122729523D01*
X110513810Y-122777142D01*
X110466190Y-122872380D01*
X110418571Y-123062857D01*
X110370952Y-123158095D01*
X110323333Y-123205714D01*
X110228095Y-123253333D01*
X110132857Y-123253333D01*
X110037619Y-123205714D01*
X109990000Y-123158095D01*
X109942381Y-123062857D01*
X109942381Y-122824761D01*
X109990000Y-122681904D01*
X109942381Y-122348571D02*
X110942381Y-122110476D01*
X110228095Y-121919999D01*
X110942381Y-121729523D01*
X109942381Y-121491428D01*
X109942381Y-120634285D02*
X109942381Y-121110476D01*
X110418571Y-121158095D01*
X110370952Y-121110476D01*
X110323333Y-121015238D01*
X110323333Y-120777142D01*
X110370952Y-120681904D01*
X110418571Y-120634285D01*
X110513810Y-120586666D01*
X110751905Y-120586666D01*
X110847143Y-120634285D01*
X110894762Y-120681904D01*
X110942381Y-120777142D01*
X110942381Y-121015238D01*
X110894762Y-121110476D01*
X110847143Y-121158095D01*
X119134048Y-124277381D02*
X118800714Y-123801190D01*
X118562619Y-124277381D02*
X118562619Y-123277381D01*
X118943572Y-123277381D01*
X119038810Y-123325000D01*
X119086429Y-123372619D01*
X119134048Y-123467857D01*
X119134048Y-123610714D01*
X119086429Y-123705952D01*
X119038810Y-123753571D01*
X118943572Y-123801190D01*
X118562619Y-123801190D01*
X119991191Y-123610714D02*
X119991191Y-124420238D01*
X119943572Y-124515476D01*
X119895953Y-124563095D01*
X119800714Y-124610714D01*
X119657857Y-124610714D01*
X119562619Y-124563095D01*
X119991191Y-124229762D02*
X119895953Y-124277381D01*
X119705476Y-124277381D01*
X119610238Y-124229762D01*
X119562619Y-124182143D01*
X119515000Y-124086905D01*
X119515000Y-123801190D01*
X119562619Y-123705952D01*
X119610238Y-123658333D01*
X119705476Y-123610714D01*
X119895953Y-123610714D01*
X119991191Y-123658333D01*
X120467381Y-124277381D02*
X120467381Y-123277381D01*
X120895953Y-124277381D02*
X120895953Y-123753571D01*
X120848334Y-123658333D01*
X120753096Y-123610714D01*
X120610238Y-123610714D01*
X120515000Y-123658333D01*
X120467381Y-123705952D01*
X121229286Y-123610714D02*
X121610238Y-123610714D01*
X121372143Y-123277381D02*
X121372143Y-124134524D01*
X121419762Y-124229762D01*
X121515000Y-124277381D01*
X121610238Y-124277381D01*
D14*
X120973905Y-105765524D02*
X121621524Y-105765524D01*
X121697714Y-105727429D01*
X121735810Y-105689333D01*
X121773905Y-105613143D01*
X121773905Y-105460762D01*
X121735810Y-105384571D01*
X121697714Y-105346476D01*
X121621524Y-105308381D01*
X120973905Y-105308381D01*
X121050095Y-104965524D02*
X121012000Y-104927429D01*
X120973905Y-104851238D01*
X120973905Y-104660762D01*
X121012000Y-104584572D01*
X121050095Y-104546476D01*
X121126286Y-104508381D01*
X121202476Y-104508381D01*
X121316762Y-104546476D01*
X121773905Y-105003619D01*
X121773905Y-104508381D01*
M02*
